# xmcd
#
# Track frame offsets:
#	150
#	18255
#	48532
#	63202
#	77610
#	92322
#	113870
#	126620
#	154315
#	174525
#
# Disc length: 2494 seconds
#
# Revision: 1
# Processed by: cddbd v1.5.1PL0 Copyright (c) Steve Scherf et al.
# Submitted via: audiograbber 1.83.01
#
DISCID=7a09bc0a
DTITLE=Brownie McGee and Sonny Terry - Blues From the Lowlands
DYEAR=1996
DGENRE=Blues
TTITLE0=I'm a Stranger Here
TTITLE1=Everybody's Blues*
TTITLE2=Trouble In Mind
TTITLE3=Walk On
TTITLE4=Down By the Riverside
TTITLE5=Blues From the Lowlands
TTITLE6=Right On That Shore*
TTITLE7=Blowin' the Fuses
TTITLE8=Drinkin' In the Blues
TTITLE9=Po' Boy
EXTD=
EXTT0=
EXTT1=
EXTT2=
EXTT3=
EXTT4=
EXTT5=
EXTT6=
EXTT7=
EXTT8=
EXTT9=
PLAYORDER=
